<svg aria-hidden="true" style="position: absolute; width: 0; height: 0; overflow: hidden;" version="1.1" xmlns="http://www.w3.org/2000/svg" xmlns:xlink="http://www.w3.org/1999/xlink">
<defs>
<symbol id="icon-resize" viewBox="0 0 32 32">
<title>resize</title>
<path d="M25.99 6.042l-0.004 9.735-3.732-3.733-4.454 4.455-2.665-2.665 4.454-4.454-3.384-3.383 9.785 0.045zM11.494 22.805l3.238 3.182-9.722 0.017 0.004-9.68 3.815 3.815 4.925-4.924 2.665 2.665-4.925 4.925z"></path>
</symbol>
<symbol id="icon-adobexd" viewBox="0 0 32 32">
<title>adobexd</title>
<path fill="#ff2bc2" style="fill: var(--color1, #ff2bc2)" d="M26.333 0.4h-20.667c-3.133 0-5.667 2.533-5.667 5.667v19.867c0 3.133 2.533 5.667 5.667 5.667h20.667c3.133 0 5.667-2.533 5.667-5.667v-19.867c0-3.133-2.533-5.667-5.667-5.667zM30.653 25.413c0 0.007 0 0.015 0 0.023 0 2.667-2.16 4.828-4.826 4.831h-19.654c-2.667 0-4.84-2.173-4.84-4.84v-18.853c0-2.667 2.173-4.84 4.84-4.84h19.64c2.673 0 4.84 2.167 4.84 4.84v0zM12.653 15l3.733 7.173c0.067 0.107 0.027 0.213-0.080 0.213h-2.32c-0.147 0-0.213-0.040-0.28-0.173-0.853-1.76-1.72-3.52-2.613-5.413h-0.027c-0.8 1.787-1.68 3.667-2.533 5.427-0.067 0.107-0.133 0.147-0.24 0.147h-2.2c-0.133 0-0.147-0.107-0.080-0.187l3.653-6.96-3.533-7.040c-0.080-0.107 0-0.187 0.080-0.187h2.293c0.133 0 0.187 0.027 0.24 0.147 0.84 1.76 1.693 3.573 2.493 5.347h0.027c0.773-1.76 1.627-3.587 2.453-5.333 0.067-0.107 0.107-0.173 0.24-0.173h2.147c0.107 0 0.147 0.080 0.080 0.187zM17.040 17.173c0-3.107 2.067-5.533 5.347-5.533 0.28 0 0.427 0 0.693 0.027v-3.533c0-0.080 0.067-0.133 0.133-0.133h2.107c0.107 0 0.133 0.040 0.133 0.107v12.24c0 0.36 0 0.813 0.067 1.307 0 0.080-0.027 0.107-0.107 0.147-1.12 0.533-2.293 0.773-3.413 0.773-2.893 0.013-4.96-1.773-4.96-5.4zM23.080 13.76c-0.187-0.080-0.453-0.133-0.773-0.133-1.68 0-2.853 1.293-2.853 3.44 0 2.453 1.2 3.44 2.707 3.44 0.32 0 0.667-0.040 0.92-0.147z"></path>
</symbol>
<symbol id="icon-adobephotoshop" viewBox="0 0 32 32">
<title>adobephotoshop</title>
<path fill="#00c8ff" style="fill: var(--color2, #00c8ff)" d="M0 0.4v31.2h32v-31.2zM1.333 1.733h29.333v28.533h-29.333zM7.733 7.707c0-0.089 0.187-0.155 0.299-0.155 0.859-0.044 2.117-0.067 3.437-0.067 3.696 0 5.133 2.027 5.133 4.621 0 3.387-2.456 4.84-5.469 4.84-0.507 0-0.68-0.023-1.033-0.023v5.123c0 0.111-0.044 0.155-0.153 0.155h-2.059c-0.111 0-0.153-0.040-0.153-0.151zM10.1 14.789c0.307 0.021 0.549 0.021 1.080 0.021 1.56 0 3.027-0.549 3.027-2.661 0-1.693-1.048-2.552-2.829-2.552-0.528 0-1.033 0.021-1.276 0.044zM21.576 13.205c-1.056 0-1.408 0.528-1.408 0.968 0 0.484 0.24 0.813 1.649 1.54 2.091 1.013 2.749 1.98 2.749 3.409 0 2.133-1.627 3.28-3.827 3.28-1.168 0-2.16-0.244-2.733-0.573-0.087-0.044-0.107-0.109-0.107-0.22v-1.956c0-0.133 0.064-0.177 0.152-0.112 0.832 0.551 1.803 0.792 2.683 0.792 1.056 0 1.496-0.44 1.496-1.035 0-0.484-0.307-0.903-1.649-1.607-1.893-0.907-2.685-1.827-2.685-3.369 0-1.716 1.341-3.147 3.673-3.147 1.147 0 1.952 0.176 2.392 0.373 0.109 0.067 0.133 0.176 0.133 0.264v1.827c0 0.111-0.067 0.177-0.2 0.133-0.592-0.352-1.467-0.573-2.319-0.568z"></path>
</symbol>
<symbol id="icon-adobeillustrator" viewBox="0 0 32 32">
<title>adobeillustrator</title>
<path fill="#ff7c00" style="fill: var(--color3, #ff7c00)" d="M0 0.4v31.2h32v-31.2zM1.333 1.733h29.333v28.533h-29.333zM11.1 18.067l-1.056 3.997c-0.023 0.111-0.067 0.136-0.197 0.136h-1.957c-0.133 0-0.153-0.044-0.133-0.197l3.787-13.26c0.067-0.24 0.109-0.451 0.131-1.111 0-0.088 0.044-0.133 0.111-0.133h2.795c0.088 0 0.133 0.024 0.155 0.133l4.247 14.392c0.023 0.111 0 0.176-0.111 0.176h-2.2c-0.111 0-0.176-0.027-0.197-0.115l-1.1-4.020zM14.817 15.9c-0.373-1.475-1.253-4.704-1.584-6.267h-0.023c-0.285 1.56-0.989 4.2-1.54 6.267zM20.817 8.489c0-0.857 0.593-1.364 1.364-1.364 0.813 0 1.364 0.549 1.364 1.364 0 0.88-0.573 1.364-1.387 1.364-0.8 0-1.347-0.484-1.341-1.364zM20.967 11.521c0-0.107 0.044-0.147 0.155-0.147h2.093c0.117 0 0.16 0.044 0.16 0.155v10.527c0 0.111-0.021 0.155-0.153 0.155h-2.067c-0.133 0-0.177-0.067-0.177-0.173z"></path>
</symbol>
<symbol id="icon-adobe" viewBox="0 0 32 32">
<title>adobe</title>
<path fill="#f00" style="fill: var(--color4, #f00)" d="M20.133 2.667h11.867v26.667zM11.867 2.667h-11.867v26.667zM16 12.533l7.467 16.8h-5.067l-2.133-5.333h-5.467z"></path>
</symbol>
<symbol id="icon-sass" viewBox="0 0 32 32">
<title>sass</title>
<path fill="#c69" style="fill: var(--color5, #c69)" d="M16 0c8.836 0 16 7.164 16 16s-7.164 16-16 16-16-7.164-16-16 7.164-16 16-16zM12.82 21.331c0.233 0.86 0.208 1.664-0.032 2.389l-0.087 0.24c-0.032 0.081-0.069 0.16-0.104 0.235-0.187 0.387-0.435 0.747-0.74 1.080-0.931 1.012-2.229 1.396-2.787 1.073-0.6-0.349-0.301-1.78 0.779-2.92 1.161-1.224 2.827-2.012 2.827-2.012v-0.004zM26.035 6.849c-0.723-2.844-5.436-3.779-9.896-2.193-2.652 0.943-5.525 2.424-7.591 4.356-2.457 2.295-2.848 4.295-2.687 5.131 0.569 2.948 4.609 4.876 6.271 6.307v0.008c-0.489 0.24-4.075 2.039-4.915 3.9-0.9 1.96 0.14 3.361 0.82 3.54 2.1 0.581 4.26-0.48 5.42-2.199 1.12-1.681 1.021-3.841 0.539-4.901 0.661-0.18 1.44-0.26 2.44-0.139 2.801 0.32 3.361 2.080 3.24 2.8-0.12 0.719-0.697 1.139-0.899 1.259-0.2 0.121-0.26 0.16-0.241 0.241 0.020 0.12 0.121 0.12 0.28 0.1 0.22-0.040 1.461-0.6 1.521-1.961 0.060-1.72-1.581-3.639-4.5-3.6-1.2 0.021-1.961 0.121-2.5 0.341-0.040-0.060-0.081-0.1-0.14-0.14-1.8-1.94-5.14-3.3-5-5.88 0.040-0.94 0.38-3.419 6.4-6.419 4.94-2.461 8.881-1.78 9.561-0.28 0.977 2.139-2.101 6.12-7.241 6.699-1.96 0.22-2.98-0.539-3.241-0.82-0.279-0.3-0.319-0.32-0.419-0.259-0.16 0.080-0.060 0.34 0 0.5 0.16 0.4 0.78 1.1 1.861 1.46 0.939 0.3 3.24 0.479 6-0.6 3.099-1.199 5.519-4.54 4.819-7.34z"></path>
</symbol>
<symbol id="icon-facebook" viewBox="0 0 24 24">
<title>facebook</title>
<path d="M17 3v2h-2c-0.552 0-1.053 0.225-1.414 0.586s-0.586 0.862-0.586 1.414v3c0 0.552 0.448 1 1 1h2.719l-0.5 2h-2.219c-0.552 0-1 0.448-1 1v7h-2v-7c0-0.552-0.448-1-1-1h-2v-2h2c0.552 0 1-0.448 1-1v-3c0-1.105 0.447-2.103 1.172-2.828s1.723-1.172 2.828-1.172zM18 1h-3c-1.657 0-3.158 0.673-4.243 1.757s-1.757 2.586-1.757 4.243v2h-2c-0.552 0-1 0.448-1 1v4c0 0.552 0.448 1 1 1h2v7c0 0.552 0.448 1 1 1h4c0.552 0 1-0.448 1-1v-7h2c0.466 0 0.858-0.319 0.97-0.757l1-4c0.134-0.536-0.192-1.079-0.728-1.213-0.083-0.021-0.167-0.031-0.242-0.030h-3v-2h3c0.552 0 1-0.448 1-1v-4c0-0.552-0.448-1-1-1z"></path>
</symbol>
<symbol id="icon-github" viewBox="0 0 24 24">
<title>github</title>
<path d="M8.713 18.042c-1.268 0.38-2.060 0.335-2.583 0.17-0.231-0.073-0.431-0.176-0.614-0.302-0.411-0.284-0.727-0.675-1.119-1.172-0.356-0.451-0.85-1.107-1.551-1.476-0.185-0.098-0.386-0.177-0.604-0.232-0.536-0.134-1.079 0.192-1.213 0.728s0.192 1.079 0.728 1.213c0.074 0.023 0.155 0.060 0.155 0.060 0.252 0.133 0.487 0.404 0.914 0.946 0.366 0.464 0.856 1.098 1.553 1.579 0.332 0.229 0.711 0.426 1.149 0.564 1.015 0.321 2.236 0.296 3.76-0.162 0.529-0.159 0.829-0.716 0.67-1.245s-0.716-0.829-1.245-0.67zM17 22v-3.792c0.052-0.684-0.056-1.343-0.292-1.942 0.777-0.171 1.563-0.427 2.297-0.823 2.083-1.124 3.496-3.242 3.496-6.923 0-1.503-0.516-2.887-1.379-3.981 0.355-1.345 0.226-2.726-0.293-3.933-0.122-0.283-0.359-0.482-0.634-0.564-0.357-0.106-1.732-0.309-4.373 1.362-2.273-0.541-4.557-0.509-6.646-0.002-2.639-1.669-4.013-1.466-4.37-1.36-0.296 0.088-0.521 0.3-0.635 0.565-0.554 1.292-0.624 2.672-0.292 3.932-0.93 1.178-1.387 2.601-1.379 4.017 0 3.622 1.389 5.723 3.441 6.859 0.752 0.416 1.56 0.685 2.357 0.867-0.185 0.468-0.286 0.961-0.304 1.456-0.005 0.141-0.003 0.283 0.005 0.424l0.001 3.838c0 0.552 0.448 1 1 1s1-0.448 1-1v-3.87c0-0.021-0.001-0.045-0.002-0.069-0.006-0.084-0.007-0.168-0.004-0.252 0.020-0.568 0.241-1.126 0.665-1.564 0.145-0.149 0.246-0.347 0.274-0.572 0.068-0.548-0.321-1.048-0.869-1.116-0.34-0.042-0.677-0.094-1.006-0.159-0.79-0.156-1.518-0.385-2.147-0.733-1.305-0.723-2.391-2.071-2.41-5.042 0.013-1.241 0.419-2.319 1.224-3.165 0.257-0.273 0.35-0.671 0.212-1.040-0.28-0.748-0.341-1.58-0.14-2.392 0.491 0.107 1.354 0.416 2.647 1.282 0.235 0.157 0.533 0.214 0.825 0.133 1.997-0.557 4.242-0.602 6.47 0.002 0.271 0.073 0.569 0.033 0.818-0.135 1.293-0.866 2.156-1.175 2.647-1.282 0.189 0.766 0.157 1.595-0.141 2.392-0.129 0.352-0.058 0.755 0.213 1.040 0.758 0.795 1.224 1.872 1.224 3.060 0 3.075-1.114 4.445-2.445 5.163-0.623 0.336-1.343 0.555-2.123 0.7-0.322 0.060-0.651 0.106-0.983 0.143-0.21 0.023-0.418 0.114-0.584 0.275-0.397 0.384-0.408 1.017-0.024 1.414 0.067 0.070 0.13 0.143 0.188 0.22 0.34 0.449 0.521 1.015 0.474 1.617 0 0.024-0.001 0.051-0.003 0.078v3.872c0 0.552 0.448 1 1 1s1-0.448 1-1z"></path>
</symbol>
<symbol id="icon-heart" viewBox="0 0 24 24">
<title>heart</title>
<path d="M20.133 5.317c0.88 0.881 1.319 2.031 1.319 3.184s-0.44 2.303-1.319 3.182l-8.133 8.133-8.133-8.133c-0.879-0.879-1.318-2.029-1.318-3.183s0.439-2.304 1.318-3.183 2.029-1.318 3.183-1.318 2.304 0.439 3.183 1.318l1.060 1.060c0.391 0.391 1.024 0.391 1.414 0l1.062-1.062c0.879-0.879 2.029-1.318 3.182-1.317s2.303 0.44 3.182 1.319zM21.547 3.903c-1.269-1.269-2.934-1.904-4.596-1.905s-3.327 0.634-4.597 1.903l-0.354 0.355-0.353-0.353c-1.269-1.269-2.935-1.904-4.597-1.904s-3.328 0.635-4.597 1.904-1.904 2.935-1.904 4.597 0.635 3.328 1.904 4.597l8.84 8.84c0.391 0.391 1.024 0.391 1.414 0l8.84-8.84c1.269-1.269 1.904-2.934 1.905-4.596s-0.634-3.327-1.905-4.598z"></path>
</symbol>
<symbol id="icon-instagram" viewBox="0 0 24 24">
<title>instagram</title>
<path d="M7 1c-1.657 0-3.158 0.673-4.243 1.757s-1.757 2.586-1.757 4.243v10c0 1.657 0.673 3.158 1.757 4.243s2.586 1.757 4.243 1.757h10c1.657 0 3.158-0.673 4.243-1.757s1.757-2.586 1.757-4.243v-10c0-1.657-0.673-3.158-1.757-4.243s-2.586-1.757-4.243-1.757zM7 3h10c1.105 0 2.103 0.447 2.828 1.172s1.172 1.723 1.172 2.828v10c0 1.105-0.447 2.103-1.172 2.828s-1.723 1.172-2.828 1.172h-10c-1.105 0-2.103-0.447-2.828-1.172s-1.172-1.723-1.172-2.828v-10c0-1.105 0.447-2.103 1.172-2.828s1.723-1.172 2.828-1.172zM16.989 11.223c-0.15-0.972-0.571-1.857-1.194-2.567-0.754-0.861-1.804-1.465-3.009-1.644-0.464-0.074-0.97-0.077-1.477-0.002-1.366 0.202-2.521 0.941-3.282 1.967s-1.133 2.347-0.93 3.712 0.941 2.521 1.967 3.282 2.347 1.133 3.712 0.93 2.521-0.941 3.282-1.967 1.133-2.347 0.93-3.712zM15.011 11.517c0.122 0.82-0.1 1.609-0.558 2.227s-1.15 1.059-1.969 1.18-1.609-0.1-2.227-0.558-1.059-1.15-1.18-1.969 0.1-1.609 0.558-2.227 1.15-1.059 1.969-1.18c0.313-0.046 0.615-0.042 0.87-0.002 0.74 0.11 1.366 0.47 1.818 0.986 0.375 0.428 0.63 0.963 0.72 1.543zM17.5 7.5c0.552 0 1-0.448 1-1s-0.448-1-1-1-1 0.448-1 1 0.448 1 1 1z"></path>
</symbol>
<symbol id="icon-linkedin" viewBox="0 0 24 24">
<title>linkedin</title>
<path d="M16 7c-1.933 0-3.684 0.785-4.95 2.050s-2.050 3.017-2.050 4.95v7c0 0.552 0.448 1 1 1h4c0.552 0 1-0.448 1-1v-7c0-0.276 0.111-0.525 0.293-0.707s0.431-0.293 0.707-0.293 0.525 0.111 0.707 0.293 0.293 0.431 0.293 0.707v7c0 0.552 0.448 1 1 1h4c0.552 0 1-0.448 1-1v-7c0-1.933-0.785-3.684-2.050-4.95s-3.017-2.050-4.95-2.050zM16 9c1.381 0 2.63 0.559 3.536 1.464s1.464 2.155 1.464 3.536v6h-2v-6c0-0.828-0.337-1.58-0.879-2.121s-1.293-0.879-2.121-0.879-1.58 0.337-2.121 0.879-0.879 1.293-0.879 2.121v6h-2v-6c0-1.381 0.559-2.63 1.464-3.536s2.155-1.464 3.536-1.464zM2 8c-0.552 0-1 0.448-1 1v12c0 0.552 0.448 1 1 1h4c0.552 0 1-0.448 1-1v-12c0-0.552-0.448-1-1-1zM3 10h2v10h-2zM7 4c0-0.828-0.337-1.58-0.879-2.121s-1.293-0.879-2.121-0.879-1.58 0.337-2.121 0.879-0.879 1.293-0.879 2.121 0.337 1.58 0.879 2.121 1.293 0.879 2.121 0.879 1.58-0.337 2.121-0.879 0.879-1.293 0.879-2.121zM5 4c0 0.276-0.111 0.525-0.293 0.707s-0.431 0.293-0.707 0.293-0.525-0.111-0.707-0.293-0.293-0.431-0.293-0.707 0.111-0.525 0.293-0.707 0.431-0.293 0.707-0.293 0.525 0.111 0.707 0.293 0.293 0.431 0.293 0.707z"></path>
</symbol>
<symbol id="icon-chevron-thin-right" viewBox="0 0 20 20">
<title>chevron-thin-right</title>
<path d="M13.25 10l-7.141-7.42c-0.268-0.27-0.268-0.707 0-0.979 0.268-0.27 0.701-0.27 0.969 0l7.83 7.908c0.268 0.271 0.268 0.709 0 0.979l-7.83 7.908c-0.268 0.271-0.701 0.27-0.969 0s-0.268-0.707 0-0.979l7.141-7.417z"></path>
</symbol>
<symbol id="icon-chat" viewBox="0 0 20 20">
<title>chat</title>
<path d="M5.8 12.2v-6.2h-3.8c-1.1 0-2 0.9-2 2v6c0 1.1 0.9 2 2 2h1v3l3-3h5c1.1 0 2-0.9 2-2v-1.82c-0.064 0.014-0.132 0.021-0.2 0.021l-7-0.001zM18 1h-9c-1.1 0-2 0.9-2 2v8h7l3 3v-3h1c1.1 0 2-0.899 2-2v-6c0-1.1-0.9-2-2-2z"></path>
</symbol>
<symbol id="icon-wink" viewBox="0 0 32 32">
<title>wink</title>
<path d="M16 32c8.837 0 16-7.163 16-16s-7.163-16-16-16-16 7.163-16 16 7.163 16 16 16zM16 3c7.18 0 13 5.82 13 13s-5.82 13-13 13-13-5.82-13-13 5.82-13 13-13zM16.961 22.22c4.383-0.866 7.785-2.861 9.014-5.519-0.677 5.249-5.047 9.299-10.339 9.299-3.726 0-6.996-2.009-8.84-5.030 2.2 1.721 6.079 2.056 10.165 1.249zM20 11c0-1.657 0.895-3 2-3s2 1.343 2 3c0 1.657-0.895 3-2 3s-2-1.343-2-3zM11 11.609c-1.306 0-2.417 0.489-2.829 1.172-0.111-0.183-0.171-1.005-0.171-1.211 0-0.971 1.343-1.758 3-1.758s3 0.787 3 1.758c0 0.206-0.061 1.028-0.171 1.211-0.412-0.683-1.522-1.172-2.829-1.172z"></path>
</symbol>
<symbol id="icon-html-five2" viewBox="0 0 32 32">
<title>html-five2</title>
<path d="M1.892 0l2.567 28.801 11.524 3.199 11.554-3.204 2.572-28.796h-28.216zM25.336 26.963l-9.288 2.574v0.015l-0.024-0.007-0.024 0.007v-0.015l-9.288-2.574-2.195-24.609h23.015l-2.195 24.609zM20.336 16.569l-0.408 4.58-3.944 1.065-3.933-1.060-0.252-2.82h-3.547l0.495 5.547 7.252 2.006 7.229-2.006 0.97-10.844h-12.874l-0.322-3.617h13.517l0.316-3.532h-17.694l0.953 10.681z"></path>
</symbol>
<symbol id="icon-css3" viewBox="0 0 32 32">
<title>css3</title>
<path d="M4.762 1.516l-1.074 5.373h21.867l-0.684 3.47h-21.881l-1.059 5.372h21.865l-1.219 6.127-8.813 2.919-7.638-2.919 0.523-2.658h-5.372l-1.278 6.448 12.632 4.834 14.563-4.834 4.805-24.133z"></path>
</symbol>
</defs>
</svg>
